<?xml version="1.0" encoding="UTF-8" standalone="no"?>
<!DOCTYPE svg PUBLIC "-//W3C//DTD SVG 1.1//EN" "http://www.w3.org/Graphics/SVG/1.1/DTD/svg11.dtd">
<svg xmlns="http://www.w3.org/2000/svg" version="1.1" viewBox="0.00 0.00 667.00 374.00">
<path fill="#82caf3" d="
  M 169.53 171.88
  A 1.77 1.75 33.8 0 0 171.04 171.59
  L 216.65 137.37
  A 0.46 0.45 -18.6 0 1 217.38 137.73
  L 217.38 148.04
  Q 217.38 148.72 216.83 149.14
  L 171.44 183.22
  A 2.45 2.45 0.0 0 1 168.50 183.22
  L 133.03 156.55
  A 0.55 0.54 -71.7 0 0 132.16 156.99
  L 132.10 207.47
  Q 132.10 208.05 131.53 208.05
  L 123.53 208.02
  Q 122.54 208.02 122.54 207.03
  L 122.54 137.72
  A 0.43 0.43 0.0 0 1 123.23 137.38
  Q 145.99 154.40 168.68 171.46
  Q 169.08 171.77 169.53 171.88
  Z"
/>
<path fill="#11120f" d="
  M 391.93 162.88
  C 388.17 165.25 389.45 169.70 393.44 170.43
  Q 398.02 171.27 402.63 172.55
  C 408.66 174.21 408.81 182.21 403.29 184.42
  C 398.03 186.53 390.76 185.89 387.35 180.86
  A 0.77 0.76 53.5 0 1 387.50 179.84
  L 387.72 179.66
  Q 388.44 179.08 389.02 179.79
  Q 393.63 185.43 401.66 183.10
  C 404.71 182.21 406.57 178.67 404.40 176.00
  Q 403.01 174.28 400.22 173.76
  Q 396.23 173.01 392.48 171.99
  C 384.90 169.93 387.04 161.53 393.68 160.08
  C 398.30 159.07 403.35 159.53 406.22 163.48
  A 0.61 0.61 0.0 0 1 406.00 164.38
  L 405.77 164.49
  Q 404.95 164.90 404.34 164.23
  C 403.71 163.55 403.00 162.65 402.11 162.35
  Q 396.07 160.28 391.93 162.88
  Z"
/>
<path fill="#11120f" d="
  M 230.62 163.88
  L 230.63 184.90
  Q 230.63 185.21 230.33 185.22
  L 229.11 185.25
  Q 228.70 185.26 228.70 184.86
  L 228.70 160.83
  Q 228.70 160.42 229.04 160.20
  C 229.87 159.68 230.95 159.95 231.49 160.77
  Q 235.83 167.35 240.32 174.15
  Q 240.70 174.73 241.07 174.14
  Q 245.37 167.30 249.77 160.73
  C 250.32 159.91 251.04 159.86 251.94 160.01
  Q 252.51 160.10 252.51 160.68
  L 252.53 184.72
  Q 252.53 185.22 252.03 185.23
  L 251.09 185.24
  Q 250.68 185.25 250.68 184.84
  L 250.67 164.27
  Q 250.67 162.70 249.81 164.01
  L 241.20 177.19
  A 0.64 0.64 0.0 0 1 240.13 177.19
  L 231.25 163.69
  Q 230.61 162.73 230.62 163.88
  Z"
/>
<path fill="#11120f" d="
  M 293.82 182.19
  Q 288.90 187.37 282.80 184.40
  Q 277.87 181.99 278.19 175.74
  C 278.62 167.22 288.67 164.06 293.97 170.44
  Q 294.50 171.07 294.50 170.25
  L 294.49 160.49
  A 0.51 0.51 0.0 0 1 295.01 159.98
  L 295.75 160.00
  Q 296.24 160.01 296.24 160.50
  L 296.21 184.50
  Q 296.21 185.22 295.50 185.23
  L 295.10 185.24
  Q 294.45 185.25 294.47 184.60
  L 294.51 182.48
  Q 294.53 181.44 293.82 182.19
  Z
  M 294.2546 175.3457
  A 6.49 6.49 0.0 0 0 287.6523 168.9699
  L 286.3725 168.9923
  A 6.49 6.49 0.0 0 0 279.9968 175.5946
  L 280.0254 177.2343
  A 6.49 6.49 0.0 0 0 286.6277 183.6101
  L 287.9075 183.5877
  A 6.49 6.49 0.0 0 0 294.2832 176.9854
  L 294.2546 175.3457
  Z"
/>
<path fill="#11120f" d="
  M 308.19 160.76
  A 0.69 0.69 0.0 0 1 308.88 160.07
  L 317.11 160.05
  A 12.34 12.12 -0.1 0 1 329.47 172.15
  L 329.47 173.09
  A 12.34 12.12 -0.1 0 1 317.15 185.23
  L 308.92 185.25
  A 0.69 0.69 0.0 0 1 308.23 184.56
  L 308.19 160.76
  Z
  M 310.21 162.35
  L 310.21 182.77
  A 0.50 0.50 0.0 0 0 310.71 183.27
  L 317.15 183.27
  A 10.36 10.18 -0.0 0 0 327.51 173.09
  L 327.51 172.03
  A 10.36 10.18 0.0 0 0 317.15 161.85
  L 310.71 161.85
  A 0.50 0.50 0.0 0 0 310.21 162.35
  Z"
/>
<circle fill="#11120f" cx="302.16" cy="161.64" r="1.43"/>
<circle fill="#11120f" cx="467.77" cy="161.64" r="1.43"/>
<path fill="#1e1e7f" d="
  M 207.24 180.33
  L 170.17 208.07
  A 0.35 0.35 0.0 0 1 169.75 208.07
  L 141.93 187.12
  A 0.35 0.35 0.0 0 1 141.79 186.85
  L 141.77 175.72
  A 0.35 0.35 0.0 0 1 142.33 175.44
  L 169.82 196.03
  A 0.35 0.35 0.0 0 0 170.24 196.03
  L 216.95 160.91
  A 0.35 0.35 0.0 0 1 217.51 161.19
  L 217.50 207.80
  A 0.35 0.35 0.0 0 1 217.15 208.15
  L 208.23 208.14
  A 0.35 0.35 0.0 0 1 207.88 207.79
  L 207.80 180.61
  A 0.35 0.35 0.0 0 0 207.24 180.33
  Z"
/>
<path fill="#11120f" d="
  M 258.56 177.76
  C 260.62 184.72 267.12 185.14 272.25 181.19
  A 0.49 0.48 66.8 0 1 273.02 181.50
  L 273.08 181.86
  A 1.16 1.15 67.3 0 1 272.62 182.99
  Q 267.14 187.02 261.55 184.43
  Q 257.80 182.69 256.88 178.04
  C 255.22 169.69 264.36 164.37 271.14 168.63
  Q 274.99 171.06 274.53 176.68
  Q 274.49 177.23 273.94 177.23
  L 258.98 177.19
  A 0.44 0.44 0.0 0 0 258.56 177.76
  Z
  M 258.95 175.58
  L 272.78 175.44
  A 0.19 0.19 0.0 0 0 272.97 175.25
  L 272.97 175.14
  A 6.95 6.40 -0.6 0 0 265.95 168.81
  L 265.63 168.81
  A 6.95 6.40 -0.6 0 0 258.75 175.28
  L 258.75 175.39
  A 0.19 0.19 0.0 0 0 258.95 175.58
  Z"
/>
<path fill="#11120f" d="
  M 351.30 176.26
  A 9.18 9.18 0.0 0 1 342.12 185.44
  A 9.18 9.18 0.0 0 1 332.94 176.26
  A 9.18 9.18 0.0 0 1 342.12 167.08
  A 9.18 9.18 0.0 0 1 351.30 176.26
  Z
  M 342.6408 183.7526
  A 7.51 7.31 86.1 0 0 349.4231 175.7628
  A 7.51 7.31 86.1 0 0 341.6192 168.7674
  A 7.51 7.31 86.1 0 0 334.8369 176.7572
  A 7.51 7.31 86.1 0 0 342.6408 183.7526
  Z"
/>
<path fill="#11120f" d="
  M 368.96 170.86
  A 0.28 0.28 0.0 0 0 369.45 170.91
  Q 373.06 165.39 379.12 167.76
  C 381.95 168.87 383.31 171.81 383.29 174.74
  Q 383.25 179.73 383.28 184.73
  Q 383.28 185.25 382.76 185.25
  L 382.04 185.25
  Q 381.58 185.25 381.57 184.80
  Q 381.49 180.36 381.58 175.30
  C 381.73 166.43 370.06 166.66 370.18 174.74
  Q 370.27 180.15 370.18 184.76
  Q 370.17 185.20 369.73 185.22
  L 368.97 185.24
  A 0.56 0.56 0.0 0 1 368.39 184.67
  Q 368.52 179.65 368.39 175.32
  Q 368.17 168.53 362.16 168.89
  Q 357.25 169.19 357.09 174.67
  Q 356.96 179.46 357.08 184.56
  A 0.63 0.63 0.0 0 1 356.48 185.21
  L 355.75 185.25
  A 0.50 0.49 88.4 0 1 355.23 184.75
  L 355.23 167.97
  Q 355.23 167.59 355.58 167.42
  Q 355.96 167.24 356.40 167.38
  Q 357.26 167.65 356.97 168.50
  Q 356.84 168.89 356.85 169.28
  Q 356.88 170.13 357.46 169.50
  Q 361.12 165.55 366.22 167.91
  Q 368.17 168.81 368.96 170.86
  Z"
/>
<path fill="#11120f" d="
  M 414.97 177.22
  Q 412.12 177.23 413.65 179.63
  L 414.32 180.68
  Q 416.00 183.33 419.12 183.62
  Q 423.36 184.01 426.47 181.26
  A 0.58 0.58 0.0 0 1 427.32 181.36
  L 427.47 181.57
  Q 427.90 182.17 427.35 182.67
  C 420.31 189.07 409.58 183.91 411.47 174.15
  C 412.54 168.64 418.43 165.90 423.56 167.67
  Q 429.35 169.67 429.08 176.62
  Q 429.06 177.21 428.47 177.21
  L 414.97 177.22
  Z
  M 413.36 175.56
  L 427.24 175.46
  A 0.18 0.18 0.0 0 0 427.42 175.28
  L 427.42 175.19
  A 6.98 6.45 -0.4 0 0 420.40 168.79
  L 420.12 168.79
  A 6.98 6.45 -0.4 0 0 413.18 175.29
  L 413.18 175.38
  A 0.18 0.18 0.0 0 0 413.36 175.56
  Z"
/>
<path fill="#11120f" d="
  M 493.49 178.10
  C 495.23 184.57 501.99 185.05 506.74 181.36
  Q 507.14 181.06 507.56 181.33
  L 507.88 181.54
  A 0.50 0.49 37.7 0 1 507.98 182.29
  C 502.76 187.87 492.47 185.85 491.62 177.50
  C 490.30 164.62 509.95 162.99 509.32 176.62
  Q 509.30 177.21 508.70 177.21
  L 494.18 177.20
  Q 493.25 177.20 493.49 178.10
  Z
  M 493.73 175.56
  L 507.63 175.48
  A 0.18 0.18 0.0 0 0 507.81 175.30
  L 507.81 175.19
  A 6.97 6.43 -0.3 0 0 500.80 168.80
  L 500.48 168.80
  A 6.97 6.43 -0.3 0 0 493.55 175.27
  L 493.55 175.38
  A 0.18 0.18 0.0 0 0 493.73 175.56
  Z"
/>
<rect fill="#11120f" x="301.25" y="167.31" width="1.82" height="17.92" rx="0.51"/>
<path fill="#11120f" d="
  M 435.92 169.72
  Q 438.93 165.99 444.24 167.85
  Q 445.00 168.11 444.77 168.89
  L 444.68 169.17
  A 0.50 0.50 0.0 0 1 444.07 169.51
  C 437.75 167.75 434.88 171.52 435.22 177.27
  Q 435.43 180.95 435.23 184.82
  Q 435.21 185.26 434.77 185.25
  L 434.06 185.25
  Q 433.60 185.25 433.60 184.80
  L 433.60 167.93
  Q 433.61 167.21 434.32 167.29
  L 434.69 167.33
  Q 435.24 167.39 435.24 167.94
  L 435.26 169.49
  Q 435.27 170.53 435.92 169.72
  Z"
/>
<path fill="#11120f" d="
  M 455.29 182.48
  A 0.27 0.27 0.0 0 0 455.79 182.48
  L 461.76 167.89
  Q 462.00 167.31 462.63 167.32
  L 463.35 167.34
  A 0.44 0.43 11.8 0 1 463.75 167.94
  L 456.77 184.52
  A 1.37 1.37 0.0 0 1 454.24 184.52
  L 447.36 168.05
  A 0.58 0.57 71.7 0 1 447.75 167.27
  Q 448.25 167.14 448.79 167.44
  A 1.19 1.12 -88.4 0 1 449.30 168.01
  L 455.29 182.48
  Z"
/>
<rect fill="#11120f" x="466.79" y="167.30" width="1.82" height="17.92" rx="0.47"/>
<path fill="#11120f" d="
  M 475.20 179.80
  Q 479.43 186.44 486.81 181.76
  A 0.63 0.62 -30.7 0 1 487.69 181.98
  L 487.85 182.27
  Q 488.16 182.83 487.65 183.21
  C 481.47 187.84 473.03 184.57 472.62 176.49
  C 472.20 168.22 481.69 164.67 487.65 169.32
  Q 488.23 169.77 487.83 170.39
  L 487.66 170.66
  A 0.52 0.51 33.8 0 1 486.92 170.80
  Q 482.63 167.76 478.21 169.76
  C 474.51 171.43 473.19 176.65 475.20 179.80
  Z"
/>
<path fill="#11120f" d="
  M 308.90 357.26
  L 307.32 355.03
  A 0.44 0.44 0.0 0 1 307.38 354.45
  L 309.71 352.35
  A 0.44 0.44 0.0 0 1 310.41 352.51
  L 312.64 357.83
  A 0.44 0.44 0.0 0 1 312.10 358.42
  L 309.12 357.43
  A 0.44 0.44 0.0 0 1 308.90 357.26
  Z"
/>
</svg>
